<?xml version="1.0" encoding="utf-8"?>
<!-- Generated by IcoMoon.io -->
<!DOCTYPE svg PUBLIC "-//W3C//DTD SVG 1.1//EN" "http://www.w3.org/Graphics/SVG/1.1/DTD/svg11.dtd">

<svg version="1.1" xmlns="http://www.w3.org/2000/svg" xmlns:xlink="http://www.w3.org/1999/xlink" width="560" height="32" viewBox="0 0 560 32">
<g transform="translate(0 0)">
	<path fill="#000000" d="M20.7 5.3c0.4 0 0.7 0.1 0.9 0.4s0.4 0.6 0.4 0.9c0 0.4-0.1 0.7-0.4 0.9l-7.3 7.3c-0.6 0.6-0.6 1.6 0 2.2l7.3 7.3c0.3 0.3 0.4 0.6 0.4 0.9 0 0.4-0.1 0.7-0.4 0.9-0.3 0.3-0.6 0.4-0.9 0.4-0.4 0-0.7-0.1-0.9-0.4l-9.3-9.3c-0.3-0.3-0.4-0.6-0.4-0.9 0-0.4 0.1-0.7 0.4-0.9l9.3-9.3c0.2-0.2 0.5-0.4 0.9-0.4v0z"></path>
</g>
<g transform="translate(48 0)">
	<path fill="#000000" d="M16 0q1.656 0 2.828 1.172t1.172 2.828v0.688q0.49 0.167 1.177 0.479l0.479-0.479q1.177-1.177 2.833-1.177 1.646 0 2.823 1.177t1.177 2.823q0 1.656-1.177 2.833l-0.479 0.479q0.313 0.688 0.479 1.177h0.688q1.656 0 2.828 1.172t1.172 2.828-1.172 2.828-2.828 1.172h-0.688q-0.167 0.49-0.479 1.177l0.479 0.479q1.177 1.177 1.177 2.833 0 1.646-1.177 2.823t-2.823 1.177q-1.656 0-2.833-1.177l-0.479-0.479q-0.688 0.313-1.177 0.479v0.688q0 1.656-1.172 2.828t-2.828 1.172-2.828-1.172-1.172-2.828v-0.688q-0.49-0.167-1.177-0.479l-0.479 0.479q-1.177 1.177-2.823 1.177-1.656 0-2.828-1.177t-1.172-2.823q0-1.667 1.167-2.833l0.479-0.479q-0.313-0.688-0.479-1.177h-0.688q-1.656 0-2.828-1.172t-1.172-2.828 1.172-2.828 2.828-1.172h0.688q0.167-0.49 0.479-1.177l-0.479-0.479q-1.167-1.167-1.167-2.833 0-1.646 1.172-2.823t2.828-1.177q1.646 0 2.823 1.177l0.479 0.479q0.688-0.313 1.177-0.479v-0.688q0-1.656 1.172-2.828t2.828-1.172zM16 2.667q-0.552 0-0.943 0.391t-0.391 0.943v2.76q-2.333 0.333-4.26 1.76l-1.948-1.948q-0.396-0.396-0.938-0.396-0.552 0-0.943 0.391t-0.391 0.943q0 0.562 0.385 0.948l1.948 1.948q-1.427 1.927-1.76 4.26h-2.76q-0.552 0-0.943 0.391t-0.391 0.943 0.391 0.943 0.943 0.391h2.76q0.333 2.333 1.76 4.26l-1.948 1.948q-0.385 0.385-0.385 0.948 0 0.552 0.391 0.943t0.943 0.391q0.542 0 0.937-0.396l1.948-1.948q1.927 1.427 4.26 1.76v2.76q0 0.552 0.391 0.943t0.943 0.391 0.943-0.391 0.391-0.943v-2.76q2.333-0.333 4.26-1.76l1.948 1.948q0.396 0.396 0.948 0.396t0.943-0.391 0.391-0.943-0.396-0.948l-1.948-1.948q1.427-1.927 1.76-4.26h2.76q0.552 0 0.943-0.391t0.391-0.943-0.391-0.943-0.943-0.391h-2.76q-0.333-2.333-1.76-4.26l1.948-1.948q0.396-0.396 0.396-0.948t-0.391-0.943-0.943-0.391-0.948 0.396l-1.948 1.948q-1.927-1.427-4.26-1.76v-2.76q0-0.552-0.391-0.943t-0.943-0.391zM16 10.667q2.208 0 3.771 1.563t1.563 3.771-1.563 3.771-3.771 1.563-3.771-1.563-1.563-3.771 1.563-3.771 3.771-1.563zM16 13.333q-1.104 0-1.885 0.781t-0.781 1.885 0.781 1.885 1.885 0.781 1.885-0.781 0.781-1.885-0.781-1.885-1.885-0.781z"></path>
</g>
<g transform="translate(96 0)">
	<path fill="#000000" d="M13.333 1.333q2.438 0 4.661 0.953t3.828 2.557 2.557 3.828 0.953 4.661q0 2.094-0.682 4.010t-1.943 3.479l7.573 7.563q0.385 0.385 0.385 0.948 0 0.573-0.38 0.953t-0.953 0.38q-0.563 0-0.948-0.385l-7.563-7.573q-1.563 1.26-3.479 1.943t-4.010 0.682q-2.438 0-4.661-0.953t-3.828-2.557-2.557-3.828-0.953-4.661 0.953-4.661 2.557-3.828 3.828-2.557 4.661-0.953zM13.333 4q-1.896 0-3.625 0.74t-2.979 1.99-1.99 2.979-0.74 3.625 0.74 3.625 1.99 2.979 2.979 1.99 3.625 0.74 3.625-0.74 2.979-1.99 1.99-2.979 0.74-3.625-0.74-3.625-1.99-2.979-2.979-1.99-3.625-0.74z"></path>
</g>
<g transform="translate(144 0)">
	<path fill="#000000" d="M16 1.333q2.99 0 5.703 1.161t4.677 3.125 3.125 4.677 1.161 5.703-1.161 5.703-3.125 4.677-4.677 3.125-5.703 1.161-5.703-1.161-4.677-3.125-3.125-4.677-1.161-5.703 1.161-5.703 3.125-4.677 4.677-3.125 5.703-1.161zM16 4q-2.438 0-4.661 0.953t-3.828 2.557-2.557 3.828-0.953 4.661 0.953 4.661 2.557 3.828 3.828 2.557 4.661 0.953 4.661-0.953 3.828-2.557 2.557-3.828 0.953-4.661-0.953-4.661-2.557-3.828-3.828-2.557-4.661-0.953zM16 9.333q0.552 0 0.943 0.391t0.391 0.943v4h4q0.552 0 0.943 0.391t0.391 0.943-0.391 0.943-0.943 0.391h-4v4q0 0.552-0.391 0.943t-0.943 0.391-0.943-0.391-0.391-0.943v-4h-4q-0.552 0-0.943-0.391t-0.391-0.943 0.391-0.943 0.943-0.391h4v-4q0-0.552 0.391-0.943t0.943-0.391z"></path>
</g>
<g transform="translate(192 0)">
	<path fill="#000000" d="M16 1.333q2.99 0 5.703 1.161t4.677 3.125 3.125 4.677 1.161 5.703-1.161 5.703-3.125 4.677-4.677 3.125-5.703 1.161-5.703-1.161-4.677-3.125-3.125-4.677-1.161-5.703 1.161-5.703 3.125-4.677 4.677-3.125 5.703-1.161zM16 4q-2.438 0-4.661 0.953t-3.828 2.557-2.557 3.828-0.953 4.661 0.953 4.661 2.557 3.828 3.828 2.557 4.661 0.953 4.661-0.953 3.828-2.557 2.557-3.828 0.953-4.661-0.953-4.661-2.557-3.828-3.828-2.557-4.661-0.953zM10.667 14.667h10.667q0.552 0 0.943 0.391t0.391 0.943-0.391 0.943-0.943 0.391h-10.667q-0.552 0-0.943-0.391t-0.391-0.943 0.391-0.943 0.943-0.391z"></path>
</g>
<g transform="translate(240 0)">
	<path fill="#000000" d="M16 1.333q2.99 0 5.703 1.161t4.677 3.125 3.125 4.677 1.161 5.703-1.161 5.703-3.125 4.677-4.677 3.125-5.703 1.161-5.703-1.161-4.677-3.125-3.125-4.677-1.161-5.703 1.161-5.703 3.125-4.677 4.677-3.125 5.703-1.161zM16 4q-2.438 0-4.661 0.953t-3.828 2.557-2.557 3.828-0.953 4.661 0.953 4.661 2.557 3.828 3.828 2.557 4.661 0.953 4.661-0.953 3.828-2.557 2.557-3.828 0.953-4.661-0.953-4.661-2.557-3.828-3.828-2.557-4.661-0.953zM20.49 11.99q0.552 0 0.943 0.391t0.391 0.943-0.396 0.948l-5.656 5.656q-0.385 0.385-0.938 0.385-0.563 0-0.948-0.385l-2.833-2.823q-0.385-0.385-0.385-0.948 0-0.552 0.391-0.943t0.943-0.391 0.948 0.396l1.885 1.885 4.708-4.719q0.396-0.396 0.948-0.396z"></path>
</g>
<g transform="translate(288 0)">
	<path fill="#000000" d="M16 1.333q2.99 0 5.703 1.161t4.677 3.125 3.125 4.677 1.161 5.703-1.161 5.703-3.125 4.677-4.677 3.125-5.703 1.161-5.703-1.161-4.677-3.125-3.125-4.677-1.161-5.703 1.161-5.703 3.125-4.677 4.677-3.125 5.703-1.161zM16 4q-2.438 0-4.661 0.953t-3.828 2.557-2.557 3.828-0.953 4.661 0.953 4.661 2.557 3.828 3.828 2.557 4.661 0.953 4.661-0.953 3.828-2.557 2.557-3.828 0.953-4.661-0.953-4.661-2.557-3.828-3.828-2.557-4.661-0.953zM19.771 10.885q0.552 0 0.948 0.391t0.396 0.943-0.396 0.948l-2.833 2.833 2.833 2.823q0.396 0.396 0.396 0.938 0 0.552-0.396 0.943t-0.948 0.391-0.938-0.385l-2.833-2.823-2.823 2.823q-0.385 0.385-0.948 0.385-0.552 0-0.943-0.385t-0.391-0.938q0-0.563 0.385-0.948l2.833-2.823-2.833-2.833q-0.385-0.385-0.385-0.938t0.391-0.948 0.943-0.396 0.948 0.396l2.823 2.833 2.833-2.833q0.396-0.396 0.938-0.396z"></path>
</g>
<g transform="translate(336 0)">
	<path fill="#000000" d="M16 2.667q0.552 0 0.943 0.391t0.391 0.943v10.667h10.667q0.552 0 0.943 0.391t0.391 0.943-0.391 0.943-0.943 0.391h-10.667v10.667q0 0.552-0.391 0.943t-0.943 0.391-0.943-0.391-0.391-0.943v-10.667h-10.667q-0.552 0-0.943-0.391t-0.391-0.943 0.391-0.943 0.943-0.391h10.667v-10.667q0-0.552 0.391-0.943t0.943-0.391z"></path>
</g>
<g transform="translate(384 0)">
	<path fill="#000000" d="M4 14.667h24q0.552 0 0.943 0.391t0.391 0.943-0.391 0.943-0.943 0.391h-24q-0.552 0-0.943-0.391t-0.391-0.943 0.391-0.943 0.943-0.391z"></path>
</g>
<g transform="translate(432 0)">
	<path fill="#000000" d="M28 6.667q0.573 0 0.953 0.38t0.38 0.953q0 0.563-0.385 0.948l-16 16q-0.385 0.385-0.948 0.385t-0.948-0.385l-8-8q-0.385-0.385-0.385-0.948 0-0.573 0.38-0.953t0.953-0.38q0.563 0 0.948 0.385l7.052 7.063 15.052-15.063q0.385-0.385 0.948-0.385z"></path>
</g>
<g transform="translate(480 0)">
	<path fill="#000000" d="M25.333 5.333q0.573 0 0.953 0.38t0.38 0.953q0 0.563-0.385 0.948l-8.396 8.385 8.396 8.385q0.385 0.385 0.385 0.948 0 0.573-0.38 0.953t-0.953 0.38q-0.563 0-0.948-0.385l-8.385-8.396-8.385 8.396q-0.385 0.385-0.948 0.385-0.573 0-0.953-0.38t-0.38-0.953q0-0.563 0.385-0.948l8.396-8.385-8.396-8.385q-0.385-0.385-0.385-0.948 0-0.573 0.38-0.953t0.953-0.38q0.563 0 0.948 0.385l8.385 8.396 8.385-8.396q0.385-0.385 0.948-0.385z"></path>
</g>

</svg>
