<?xml version="1.0" encoding="utf-8"?>
<!-- Generated by IcoMoon.io -->
<!DOCTYPE svg PUBLIC "-//W3C//DTD SVG 1.1//EN" "http://www.w3.org/Graphics/SVG/1.1/DTD/svg11.dtd">
<svg version="1.1" xmlns="http://www.w3.org/2000/svg" xmlns:xlink="http://www.w3.org/1999/xlink" width="32" height="32" viewBox="0 0 32 32">
<path fill="#000000" d="M20.7 5.3c0.4 0 0.7 0.1 0.9 0.4s0.4 0.6 0.4 0.9c0 0.4-0.1 0.7-0.4 0.9l-7.3 7.3c-0.6 0.6-0.6 1.6 0 2.2l7.3 7.3c0.3 0.3 0.4 0.6 0.4 0.9 0 0.4-0.1 0.7-0.4 0.9-0.3 0.3-0.6 0.4-0.9 0.4-0.4 0-0.7-0.1-0.9-0.4l-9.3-9.3c-0.3-0.3-0.4-0.6-0.4-0.9 0-0.4 0.1-0.7 0.4-0.9l9.3-9.3c0.2-0.2 0.5-0.4 0.9-0.4v0z"></path>
</svg>
