<?xml version="1.0" encoding="utf-8"?>
<!-- Generated by IcoMoon.io -->
<!DOCTYPE svg PUBLIC "-//W3C//DTD SVG 1.1//EN" "http://www.w3.org/Graphics/SVG/1.1/DTD/svg11.dtd">
<svg version="1.1" xmlns="http://www.w3.org/2000/svg" xmlns:xlink="http://www.w3.org/1999/xlink" width="32" height="32" viewBox="0 0 32 32">
<path fill="#000000" d="M30.6 17.5c-0.2 1.8-0.7 3.5-1.5 5.1s-1.9 3-3.2 4.3c-1.3 1.2-2.8 2.1-4.5 2.8s-3.5 1-5.4 1c-2 0-3.9-0.4-5.7-1.2-1.7-0.7-3.3-1.8-4.7-3.1-1.4-1.4-2.4-3-3.1-4.7-0.8-1.8-1.2-3.7-1.2-5.7 0-1.9 0.3-3.7 1-5.4s1.6-3.2 2.8-4.5c1.2-1.3 2.6-2.4 4.3-3.2s3.3-1.3 5.1-1.5c0.4 0 0.7 0.1 1 0.3s0.4 0.6 0.4 1c0 0.3-0.1 0.6-0.3 0.9s-0.5 0.4-0.9 0.4c-1.5 0.1-2.9 0.6-4.2 1.2-1.3 0.7-2.5 1.5-3.5 2.7-1 1.1-1.8 2.3-2.3 3.7-0.6 1.4-0.8 2.9-0.8 4.4 0 1.6 0.3 3.2 0.9 4.7 0.6 1.4 1.4 2.7 2.6 3.8 1.1 1.1 2.4 2 3.8 2.6 1.5 0.6 3 0.9 4.7 0.9 1.5 0 3-0.3 4.4-0.8s2.6-1.3 3.7-2.3c1.1-1 2-2.2 2.7-3.5s1.1-2.7 1.2-4.2c0-0.3 0.2-0.6 0.4-0.9 0.3-0.2 0.6-0.3 0.9-0.3s0.5 0.1 0.7 0.2c0.2 0.1 0.3 0.2 0.4 0.4s0.2 0.3 0.2 0.5c0.1 0.1 0.1 0.2 0.1 0.4v0z"></path>
<path fill="#000000" d="M29.3 4.6c0.3-0.3 0.4-0.6 0.4-0.9 0-0.4-0.1-0.7-0.4-1s-0.6-0.4-1-0.4c-0.4 0-0.7 0.1-0.9 0.4l-0.7 0.7c-0.2 0.2-0.2 0.6 0 0.9l1 1c0.2 0.2 0.6 0.2 0.9 0l0.7-0.7z"></path>
<path fill="#000000" d="M23.1 10.8l3.3-3.3c0.2-0.2 0.2-0.6 0-0.9l-1-1c-0.2-0.2-0.6-0.2-0.9 0l-8.1 8.1c-0.3 0.3-1.7 3.1-1.4 3.3s3.1-1.2 3.3-1.4v0l4.8-4.8z"></path>
</svg>
