<?xml version="1.0" encoding="utf-8"?>
<!-- Generated by IcoMoon.io -->
<!DOCTYPE svg PUBLIC "-//W3C//DTD SVG 1.1//EN" "http://www.w3.org/Graphics/SVG/1.1/DTD/svg11.dtd">
<svg version="1.1" xmlns="http://www.w3.org/2000/svg" xmlns:xlink="http://www.w3.org/1999/xlink" width="32" height="32" viewBox="0 0 32 32">
<path fill="#000000" d="M30.594 17.469q-0.271 2.698-1.49 5.12t-3.229 4.255q-1.979 1.802-4.49 2.802-2.594 1.021-5.385 1.021-2.99 0-5.708-1.156-2.573-1.073-4.667-3.135-2.063-2.094-3.135-4.667-1.156-2.719-1.156-5.708 0-2.792 1.021-5.385 1-2.51 2.802-4.49 1.833-2.010 4.255-3.229t5.12-1.49q0.594-0.052 1.031 0.339t0.438 0.995q0 0.51-0.344 0.891t-0.854 0.432q-2.219 0.219-4.198 1.214t-3.479 2.651q-1.49 1.615-2.292 3.667-0.833 2.125-0.833 4.406 0 2.448 0.938 4.667 0.885 2.104 2.573 3.823 1.719 1.688 3.823 2.573 2.219 0.938 4.667 0.938 2.281 0 4.406-0.833 2.052-0.802 3.667-2.292 1.656-1.5 2.651-3.479t1.214-4.198q0.052-0.51 0.432-0.854t0.891-0.344q0.396 0 0.677 0.151t0.417 0.401 0.188 0.474 0.052 0.443zM30.667 2.667v8q0 0.552-0.391 0.943t-0.943 0.391-0.943-0.391-0.391-0.943v-4.781l-11.063 11.063q-0.375 0.385-0.938 0.385-0.573 0-0.953-0.38t-0.38-0.953q0-0.563 0.385-0.948l11.063-11.052h-4.781q-0.552 0-0.943-0.391t-0.391-0.943 0.391-0.943 0.943-0.391h8q0.552 0 0.943 0.391t0.391 0.943z"></path>
</svg>
