<svg display="none" width="0" height="0" version="1.1" xmlns="http://www.w3.org/2000/svg" xmlns:xlink="http://www.w3.org/1999/xlink">
<defs>
<symbol id="icon-edit" viewBox="0 0 1024 1024">
	<title>edit</title>
	<path class="path1" d="M979.2 560c-6.4 57.6-22.4 112-48 163.2s-60.8 96-102.4 137.6c-41.6 38.4-89.6 67.2-144 89.6s-112 32-172.8 32c-64 0-124.8-12.8-182.4-38.4-54.4-22.4-105.6-57.6-150.4-99.2-44.8-44.8-76.8-96-99.2-150.4-25.6-57.6-38.4-118.4-38.4-182.4 0-60.8 9.6-118.4 32-172.8s51.2-102.4 89.6-144c38.4-41.6 83.2-76.8 137.6-102.4s105.6-41.6 163.2-48c12.8 0 22.4 3.2 32 9.6s12.8 19.2 12.8 32c0 9.6-3.2 19.2-9.6 28.8s-16 12.8-28.8 12.8c-48 3.2-92.8 19.2-134.4 38.4-41.6 22.4-80 48-112 86.4-32 35.2-57.6 73.6-73.6 118.4-19.2 44.8-25.6 92.8-25.6 140.8 0 51.2 9.6 102.4 28.8 150.4 19.2 44.8 44.8 86.4 83.2 121.6 35.2 35.2 76.8 64 121.6 83.2 48 19.2 96 28.8 150.4 28.8 48 0 96-9.6 140.8-25.6s83.2-41.6 118.4-73.6c35.2-32 64-70.4 86.4-112s35.2-86.4 38.4-134.4c0-9.6 6.4-19.2 12.8-28.8 9.6-6.4 19.2-9.6 28.8-9.6s16 3.2 22.4 6.4c6.4 3.2 9.6 6.4 12.8 12.8s6.4 9.6 6.4 16c3.2 3.2 3.2 6.4 3.2 12.8v0z"></path>
	<path class="path2" d="M937.6 147.2c9.6-9.6 12.8-19.2 12.8-28.8 0-12.8-3.2-22.4-12.8-32s-19.2-12.8-32-12.8c-12.8 0-22.4 3.2-28.8 12.8l-22.4 22.4c-6.4 6.4-6.4 19.2 0 28.8l32 32c6.4 6.4 19.2 6.4 28.8 0l22.4-22.4z"></path>
	<path class="path3" d="M739.2 345.6l105.6-105.6c6.4-6.4 6.4-19.2 0-28.8l-32-32c-6.4-6.4-19.2-6.4-28.8 0l-259.2 259.2c-9.6 9.6-54.4 99.2-44.8 105.6s99.2-38.4 105.6-44.8v0l153.6-153.6z"></path>
</symbol>
<symbol id="icon-back" viewBox="0 0 1024 1024">
	<title>back</title>
	<path class="path1" d="M662.4 169.6c12.8 0 22.4 3.2 28.8 12.8s12.8 19.2 12.8 28.8c0 12.8-3.2 22.4-12.8 28.8l-233.6 233.6c-19.2 19.2-19.2 51.2 0 70.4l233.6 233.6c9.6 9.6 12.8 19.2 12.8 28.8 0 12.8-3.2 22.4-12.8 28.8-9.6 9.6-19.2 12.8-28.8 12.8-12.8 0-22.4-3.2-28.8-12.8l-297.6-297.6c-9.6-9.6-12.8-19.2-12.8-28.8 0-12.8 3.2-22.4 12.8-28.8l297.6-297.6c6.4-6.4 16-12.8 28.8-12.8v0z"></path>
</symbol>
<symbol id="icon-cog" viewBox="0 0 1024 1024">
	<title>cog</title>
	<path class="path1" d="M512 0q53 0 90.5 37.5t37.5 90.5v22q15.667 5.333 37.667 15.333l15.333-15.333q37.667-37.667 90.667-37.667 52.667 0 90.333 37.667t37.667 90.333q0 53-37.667 90.667l-15.333 15.333q10 22 15.333 37.667h22q53 0 90.5 37.5t37.5 90.5-37.5 90.5-90.5 37.5h-22q-5.333 15.667-15.333 37.667l15.333 15.333q37.667 37.667 37.667 90.667 0 52.667-37.667 90.333t-90.333 37.667q-53 0-90.667-37.667l-15.333-15.333q-22 10-37.667 15.333v22q0 53-37.5 90.5t-90.5 37.5-90.5-37.5-37.5-90.5v-22q-15.667-5.333-37.667-15.333l-15.333 15.333q-37.667 37.667-90.333 37.667-53 0-90.5-37.667t-37.5-90.333q0-53.333 37.333-90.667l15.333-15.333q-10-22-15.333-37.667h-22q-53 0-90.5-37.5t-37.5-90.5 37.5-90.5 90.5-37.5h22q5.333-15.667 15.333-37.667l-15.333-15.333q-37.333-37.333-37.333-90.667 0-52.667 37.5-90.333t90.5-37.667q52.667 0 90.333 37.667l15.333 15.333q22-10 37.667-15.333v-22q0-53 37.5-90.5t90.5-37.5zM512 85.333q-17.667 0-30.167 12.5t-12.5 30.167v88.333q-74.667 10.667-136.333 56.333l-62.333-62.333q-12.667-12.667-30-12.667-17.667 0-30.167 12.5t-12.5 30.167q0 18 12.333 30.333l62.333 62.333q-45.667 61.667-56.333 136.333h-88.333q-17.667 0-30.167 12.5t-12.5 30.167 12.5 30.167 30.167 12.5h88.333q10.667 74.667 56.333 136.333l-62.333 62.333q-12.333 12.333-12.333 30.333 0 17.667 12.5 30.167t30.167 12.5q17.333 0 30-12.667l62.333-62.333q61.667 45.667 136.333 56.333v88.333q0 17.667 12.5 30.167t30.167 12.5 30.167-12.5 12.5-30.167v-88.333q74.667-10.667 136.333-56.333l62.333 62.333q12.667 12.667 30.333 12.667t30.167-12.5 12.5-30.167-12.667-30.333l-62.333-62.333q45.667-61.667 56.333-136.333h88.333q17.667 0 30.167-12.5t12.5-30.167-12.5-30.167-30.167-12.5h-88.333q-10.667-74.667-56.333-136.333l62.333-62.333q12.667-12.667 12.667-30.333t-12.5-30.167-30.167-12.5-30.333 12.667l-62.333 62.333q-61.667-45.667-136.333-56.333v-88.333q0-17.667-12.5-30.167t-30.167-12.5zM512 341.333q70.667 0 120.667 50t50 120.667-50 120.667-120.667 50-120.667-50-50-120.667 50-120.667 120.667-50zM512 426.667q-35.333 0-60.333 25t-25 60.333 25 60.333 60.333 25 60.333-25 25-60.333-25-60.333-60.333-25z"></path>
</symbol>
<symbol id="icon-search" viewBox="0 0 1024 1024">
	<title>search</title>
	<path class="path1" d="M426.667 42.667q78 0 149.167 30.5t122.5 81.833 81.833 122.5 30.5 149.167q0 67-21.833 128.333t-62.167 111.333l242.333 242q12.333 12.333 12.333 30.333 0 18.333-12.167 30.5t-30.5 12.167q-18 0-30.333-12.333l-242-242.333q-50 40.333-111.333 62.167t-128.333 21.833q-78 0-149.167-30.5t-122.5-81.833-81.833-122.5-30.5-149.167 30.5-149.167 81.833-122.5 122.5-81.833 149.167-30.5zM426.667 128q-60.667 0-116 23.667t-95.333 63.667-63.667 95.333-23.667 116 23.667 116 63.667 95.333 95.333 63.667 116 23.667 116-23.667 95.333-63.667 63.667-95.333 23.667-116-23.667-116-63.667-95.333-95.333-63.667-116-23.667z"></path>
</symbol>
<symbol id="icon-circle-plus" viewBox="0 0 1024 1024">
	<title>circle-plus</title>
	<path class="path1" d="M512 42.667q95.667 0 182.5 37.167t149.667 100 100 149.667 37.167 182.5-37.167 182.5-100 149.667-149.667 100-182.5 37.167-182.5-37.167-149.667-100-100-149.667-37.167-182.5 37.167-182.5 100-149.667 149.667-100 182.5-37.167zM512 128q-78 0-149.167 30.5t-122.5 81.833-81.833 122.5-30.5 149.167 30.5 149.167 81.833 122.5 122.5 81.833 149.167 30.5 149.167-30.5 122.5-81.833 81.833-122.5 30.5-149.167-30.5-149.167-81.833-122.5-122.5-81.833-149.167-30.5zM512 298.667q17.667 0 30.167 12.5t12.5 30.167v128h128q17.667 0 30.167 12.5t12.5 30.167-12.5 30.167-30.167 12.5h-128v128q0 17.667-12.5 30.167t-30.167 12.5-30.167-12.5-12.5-30.167v-128h-128q-17.667 0-30.167-12.5t-12.5-30.167 12.5-30.167 30.167-12.5h128v-128q0-17.667 12.5-30.167t30.167-12.5z"></path>
</symbol>
<symbol id="icon-circle-minus" viewBox="0 0 1024 1024">
	<title>circle-minus</title>
	<path class="path1" d="M512 42.667q95.667 0 182.5 37.167t149.667 100 100 149.667 37.167 182.5-37.167 182.5-100 149.667-149.667 100-182.5 37.167-182.5-37.167-149.667-100-100-149.667-37.167-182.5 37.167-182.5 100-149.667 149.667-100 182.5-37.167zM512 128q-78 0-149.167 30.5t-122.5 81.833-81.833 122.5-30.5 149.167 30.5 149.167 81.833 122.5 122.5 81.833 149.167 30.5 149.167-30.5 122.5-81.833 81.833-122.5 30.5-149.167-30.5-149.167-81.833-122.5-122.5-81.833-149.167-30.5zM341.333 469.333h341.333q17.667 0 30.167 12.5t12.5 30.167-12.5 30.167-30.167 12.5h-341.333q-17.667 0-30.167-12.5t-12.5-30.167 12.5-30.167 30.167-12.5z"></path>
</symbol>
<symbol id="icon-circle-check" viewBox="0 0 1024 1024">
	<title>circle-check</title>
	<path class="path1" d="M512 42.667q95.667 0 182.5 37.167t149.667 100 100 149.667 37.167 182.5-37.167 182.5-100 149.667-149.667 100-182.5 37.167-182.5-37.167-149.667-100-100-149.667-37.167-182.5 37.167-182.5 100-149.667 149.667-100 182.5-37.167zM512 128q-78 0-149.167 30.5t-122.5 81.833-81.833 122.5-30.5 149.167 30.5 149.167 81.833 122.5 122.5 81.833 149.167 30.5 149.167-30.5 122.5-81.833 81.833-122.5 30.5-149.167-30.5-149.167-81.833-122.5-122.5-81.833-149.167-30.5zM655.667 383.667q17.667 0 30.167 12.5t12.5 30.167-12.667 30.333l-181 181q-12.333 12.333-30 12.333-18 0-30.333-12.333l-90.667-90.333q-12.333-12.333-12.333-30.333 0-17.667 12.5-30.167t30.167-12.5 30.333 12.667l60.333 60.333 150.667-151q12.667-12.667 30.333-12.667z"></path>
</symbol>
<symbol id="icon-circle-cross" viewBox="0 0 1024 1024">
	<title>circle-cross</title>
	<path class="path1" d="M512 42.667q95.667 0 182.5 37.167t149.667 100 100 149.667 37.167 182.5-37.167 182.5-100 149.667-149.667 100-182.5 37.167-182.5-37.167-149.667-100-100-149.667-37.167-182.5 37.167-182.5 100-149.667 149.667-100 182.5-37.167zM512 128q-78 0-149.167 30.5t-122.5 81.833-81.833 122.5-30.5 149.167 30.5 149.167 81.833 122.5 122.5 81.833 149.167 30.5 149.167-30.5 122.5-81.833 81.833-122.5 30.5-149.167-30.5-149.167-81.833-122.5-122.5-81.833-149.167-30.5zM632.667 348.333q17.667 0 30.333 12.5t12.667 30.167-12.667 30.333l-90.667 90.667 90.667 90.333q12.667 12.667 12.667 30 0 17.667-12.667 30.167t-30.333 12.5-30-12.333l-90.667-90.333-90.333 90.333q-12.333 12.333-30.333 12.333-17.667 0-30.167-12.333t-12.5-30q0-18 12.333-30.333l90.667-90.333-90.667-90.667q-12.333-12.333-12.333-30t12.5-30.333 30.167-12.667 30.333 12.667l90.333 90.667 90.667-90.667q12.667-12.667 30-12.667z"></path>
</symbol>
<symbol id="icon-reload" viewBox="0 0 1024 1024">
	<title>reload</title>
	<path class="path1" d="M469.333 85.333q83 0 160.667 31.333 79.667 32.333 141 93.667 0.333 0.333 125 122.333v-162q0-17.667 12.5-30.167t30.167-12.5 30.167 12.5 12.5 30.167v256q0 17.667-12.5 30.167t-30.167 12.5h-256q-17.667 0-30.167-12.5t-12.5-30.167 12.5-30.167 30.167-12.5h144q-92.667-90-116-113.333-49.667-49.667-113-75-61-25-128.333-25t-128.333 25q-63.667 25.333-113 75-49.333 49.333-75 113-25 61-25 128.333t25 128.333q25.667 63.667 75 113 49.333 49.667 113 75 61 25 128.333 25t128.333-25q63.333-25.333 113-75 55.333-55.333 80.667-127.667 5.667-16.667 21.667-24.167t32.667-1.833q16.667 6 24.333 22t1.667 32.667q-15.333 43.667-41.5 85.333t-59.167 74q-61.333 61.333-141 93.667-77.667 31.333-160.667 31.333t-160.667-31.333q-79.667-32.333-141-93.667t-93.667-141q-31.333-77.667-31.333-160.667t31.333-160.667q32.333-79.667 93.667-141t141-93.667q77.667-31.333 160.667-31.333z"></path>
</symbol>
<symbol id="icon-esc" viewBox="0 0 1024 1024">
	<title>esc</title>
	<path class="path1" d="M979 559q-8.667 86.333-47.667 163.833t-103.333 136.167q-63.333 57.667-143.667 89.667-83 32.667-172.333 32.667-95.667 0-182.667-37-82.333-34.333-149.333-100.333-66-67-100.333-149.333-37-87-37-182.667 0-89.333 32.667-172.333 32-80.333 89.667-143.667 58.667-64.333 136.167-103.333t163.833-47.667q19-1.667 33 10.833t14 31.833q0 16.333-11 28.5t-27.333 13.833q-71 7-134.333 38.833t-111.333 84.833q-47.667 51.667-73.333 117.333-26.667 68-26.667 141 0 78.333 30 149.333 28.333 67.333 82.333 122.333 55 54 122.333 82.333 71 30 149.333 30 73 0 141-26.667 65.667-25.667 117.333-73.333 53-48 84.833-111.333t38.833-134.333q1.667-16.333 13.833-27.333t28.5-11q12.667 0 21.667 4.833t13.333 12.833 6 15.167 1.667 14.167zM981.333 85.333v256q0 17.667-12.5 30.167t-30.167 12.5-30.167-12.5-12.5-30.167v-153l-354 354q-12 12.333-30 12.333-18.333 0-30.5-12.167t-12.167-30.5q0-18 12.333-30.333l354-353.667h-153q-17.667 0-30.167-12.5t-12.5-30.167 12.5-30.167 30.167-12.5h256q17.667 0 30.167 12.5t12.5 30.167z"></path>
</symbol>
<symbol id="icon-plus" viewBox="0 0 1024 1024">
	<title>plus</title>
	<path class="path1" d="M512 85.333q17.667 0 30.167 12.5t12.5 30.167v341.333h341.333q17.667 0 30.167 12.5t12.5 30.167-12.5 30.167-30.167 12.5h-341.333v341.333q0 17.667-12.5 30.167t-30.167 12.5-30.167-12.5-12.5-30.167v-341.333h-341.333q-17.667 0-30.167-12.5t-12.5-30.167 12.5-30.167 30.167-12.5h341.333v-341.333q0-17.667 12.5-30.167t30.167-12.5z"></path>
</symbol>
<symbol id="icon-minus" viewBox="0 0 1024 1024">
	<title>minus</title>
	<path class="path1" d="M128 469.333h768q17.667 0 30.167 12.5t12.5 30.167-12.5 30.167-30.167 12.5h-768q-17.667 0-30.167-12.5t-12.5-30.167 12.5-30.167 30.167-12.5z"></path>
</symbol>
<symbol id="icon-check" viewBox="0 0 1024 1024">
	<title>check</title>
	<path class="path1" d="M896 213.333q18.333 0 30.5 12.167t12.167 30.5q0 18-12.333 30.333l-512 512q-12.333 12.333-30.333 12.333t-30.333-12.333l-256-256q-12.333-12.333-12.333-30.333 0-18.333 12.167-30.5t30.5-12.167q18 0 30.333 12.333l225.667 226 481.667-482q12.333-12.333 30.333-12.333z"></path>
</symbol>
<symbol id="icon-cross" viewBox="0 0 1024 1024">
	<title>cross</title>
	<path class="path1" d="M810.667 170.667q18.333 0 30.5 12.167t12.167 30.5q0 18-12.333 30.333l-268.667 268.333 268.667 268.333q12.333 12.333 12.333 30.333 0 18.333-12.167 30.5t-30.5 12.167q-18 0-30.333-12.333l-268.333-268.667-268.333 268.667q-12.333 12.333-30.333 12.333-18.333 0-30.5-12.167t-12.167-30.5q0-18 12.333-30.333l268.667-268.333-268.667-268.333q-12.333-12.333-12.333-30.333 0-18.333 12.167-30.5t30.5-12.167q18 0 30.333 12.333l268.333 268.667 268.333-268.667q12.333-12.333 30.333-12.333z"></path>
</symbol>
</defs>
</svg>
